<svg xmlns="http://www.w3.org/2000/svg" viewBox="0 0 400.08 453.32"><defs><style>.cls-1{fill:#3f3d56;}.cls-2{fill:#6d6d6d;}.cls-3{fill:#bababa;}.cls-4{fill:#fec653;}.cls-5{fill:#d99c3d;}.cls-6{fill:#706f6d;}.cls-7{fill:#898989;}.cls-8{fill:#fed35b;}</style></defs><title>good-posture</title><g id="Layer_2" data-name="Layer 2"><g id="Layer_9" data-name="Layer 9"><path class="cls-1" d="M13.33,148s30-10.66,34.67,0,6.29,153.58,6.29,153.58H176.05L170,337.32S26.33,357,17.33,321.32,1.58,151.25,13.33,148Z"/><polygon class="cls-1" points="74 340.06 74 356.98 85.5 356.98 106 356.98 106 340.06 74 340.06"/><rect class="cls-1" x="86.33" y="329.32" width="14.33" height="119"/><path class="cls-1" d="M86.33,448.32s7,11.25,14.34,0Z"/><path class="cls-1" d="M86.75,405.32,0,420.82v20.25c0,5.38,3.58,9.75,8,9.75H8c4.42,0,8-4.37,8-9.75v-13l72.65-12.75Z"/><path class="cls-1" d="M98.18,405.32l86.75,15.5v20.25c0,5.38-3.58,9.75-8,9.75h0c-4.41,0-8-4.37-8-9.75v-13L96.29,415.32Z"/><rect class="cls-1" x="355.03" y="234.89" width="18" height="210.33"/><rect class="cls-1" x="210.06" y="237.56" width="18" height="210.33"/><rect class="cls-1" x="176.05" y="206.46" width="224.03" height="46.52"/><path class="cls-2" d="M273.24,138.57s-15.54,61-23.78,65.71,14.76.4,14.76.4Z"/><path class="cls-3" d="M193.33,205.47v12.72h65.49s5.22-.78,13.31-25.45c7.33-22.32,11.21-39.08,12.05-48.23.28-3-7.87-7.36-10.92-7.36l-.67,4.17s-9.53,57.72-20.54,64.15C248.89,207.31,193.33,205.47,193.33,205.47Z"/></g><g id="Layer_7" data-name="Layer 7"><path class="cls-4" d="M90.54,108s11.71-11,22.69,0,10.64,88.67,10.64,88.67h62.67v17.5s-80.34,18.5-88.67,0S86.2,116.65,90.54,108Z"/><path class="cls-4" d="M209.91,205.55c0,7.92-8.81,7.62-19.67,7.62s-19.67.3-19.67-7.62,8.81-14.33,19.67-14.33S209.91,197.64,209.91,205.55Z"/></g><g id="neck"><path class="cls-4" d="M63.92,70.07V85.26l34.75,7.39V85.26S93.51,86.16,63.92,70.07Z"/><path class="cls-5" d="M63.92,85.26S48,91.32,48,112.65,52.63,228,52.63,228v34l77.45-10s10.09-90.91-31.41-159.33"/></g><g id="Layer_5" data-name="Layer 5"><path class="cls-6" d="M61.1,260.89s-7.46,42,18.69,45.76,90.7,7.5,90.7,7.5v121.5h43.17s15.65-153.25-6.34-166.5S130.08,252,130.08,252Z"/><path class="cls-7" d="M52.63,262s-14,40.92,12.1,44.67,90.7,7.5,90.7,7.5v121.5H198.6s15.65-153.25-6.33-166.5-88.55-13.76-88.55-13.76Z"/><path class="cls-8" d="M68.67,118s11.71-11,22.69,0S102,206.65,102,206.65h62.67v17.5s-80.34,18.5-88.67,0S64.33,126.65,68.67,118Z"/><path class="cls-8" d="M195.72,216.53c0,7.92-8.81,7.62-19.67,7.62s-19.67.3-19.67-7.62,8.81-14.34,19.67-14.34S195.72,208.61,195.72,216.53Z"/></g><g id="Layer_6" data-name="Layer 6"><path class="cls-4" d="M171.1,425.65h44.1l-.93,10s31.56-1.17,25.73,17.67H171.1Z"/><path class="cls-8" d="M155.43,425.65h44.11l-.94,10s31.57-1.17,25.73,17.67h-68.9Z"/></g><g id="head"><path class="cls-8" d="M65.4,6.62c9.71-8.44,47.78-9.27,52.81,8.22s20,39.23,6.1,52.88-19.11,26.34-50.2,9.43-19.81-42.59-18-51.42S65.4,6.62,65.4,6.62Z"/></g><g id="Layer_8" data-name="Layer 8"><path class="cls-5" d="M120.75,22.28a25.18,25.18,0,0,1-18,0c-9.5-3.76-14.12-2.38-14.12-2.38s2.12,7.25,5.12,7.75S86,28.9,81.29,21.15c0,0-9.79-.43-10.79,6.79s-8,3.35-8,15.09-3.91,5.56-4.25,12.87l-.34,7.3s-14-17.05-5.28-36.8S63.25,2.46,75.75.81,104.88,0,111,3.65,125.75,11,120.75,22.28Z"/></g></g></svg>